<svg xmlns="http://www.w3.org/2000/svg" width="179.001" height="53.23" viewBox="0 0 179.001 53.23">
  <g id="Group_2" data-name="Group 2" transform="translate(-65.519 -351.971)">
    <rect id="Rectangle_4" data-name="Rectangle 4" width="3.893" height="52.916" transform="translate(65.519 351.971)" fill="#e50019"/>
    <g id="Group_1" data-name="Group 1" transform="translate(75.903 384.065)">
      <path id="Path_1" data-name="Path 1" d="M151.869,445.723a7.511,7.511,0,0,0-.97-4.191,2.986,2.986,0,0,0-2.662-1.459q-3.579,0-3.571,5.589a7.872,7.872,0,0,0,.932,4.217,3.077,3.077,0,0,0,2.694,1.436q3.574,0,3.576-5.591m5.881-.062q0,5-2.637,7.817a8.983,8.983,0,0,1-6.875,2.781,8.881,8.881,0,0,1-6.822-2.721q-2.637-2.811-2.638-7.814t2.667-7.846a9.9,9.9,0,0,1,13.668-.033q2.641,2.812,2.637,7.817" transform="translate(-120.886 -435.123)" fill="#454d53"/>
      <path id="Path_2" data-name="Path 2" d="M207.322,456.448H200.59l-4.275-8.724-2.11,2.546v6.178h-5.8v-20.5h5.8v2.4q0,2.812-.086,5.065a66.411,66.411,0,0,1,3.951-5.385l1.641-2.081h6.91l-6.179,7.231Z" transform="translate(-151.36 -435.633)" fill="#454d53"/>
      <path id="Path_3" data-name="Path 3" d="M253.23,440.9h-5.739v15.547h-5.682V440.9h-5.735v-4.949H253.23Z" transform="translate(-180.628 -435.632)" fill="#454d53"/>
      <path id="Path_4" data-name="Path 4" d="M293.06,445.723a7.551,7.551,0,0,0-.963-4.191,2.992,2.992,0,0,0-2.666-1.459q-3.574,0-3.57,5.589a7.827,7.827,0,0,0,.936,4.217,3.073,3.073,0,0,0,2.693,1.436q3.569,0,3.571-5.591m5.886-.062q0,5-2.634,7.817a9.006,9.006,0,0,1-6.882,2.781,8.883,8.883,0,0,1-6.822-2.721q-2.636-2.811-2.633-7.814t2.662-7.846a9.907,9.907,0,0,1,13.675-.033q2.63,2.812,2.634,7.817" transform="translate(-207.585 -435.123)" fill="#454d53"/>
      <path id="Path_5" data-name="Path 5" d="M341.094,442.777q0-2.2-2.489-2.194h-3.426v4.477h3.338q2.582,0,2.578-2.283m6.06,13.672H340.8l-3.34-6.909h-2.284v6.909H329.59v-20.5h9.161q7.995,0,8,6.677a6.033,6.033,0,0,1-3.69,6Z" transform="translate(-238.05 -435.633)" fill="#454d53"/>
      <path id="Path_6" data-name="Path 6" d="M390.376,456.448H375.563v-20.5H381.3V451.5h9.074Z" transform="translate(-266.278 -435.632)" fill="#454d53"/>
      <path id="Path_7" data-name="Path 7" d="M426.384,448.34,426,446.995c-.7-2.462-1.141-4.169-1.317-5.128q-.26,1.439-1.317,5.128l-.381,1.346Zm8.637,8.108h-6.147l-1.116-3.6h-6.144l-1.118,3.6h-6.087l7.437-20.5h5.739Z" transform="translate(-290.13 -435.633)" fill="#454d53"/>
      <path id="Path_8" data-name="Path 8" d="M479.788,442.777q0-2.2-2.487-2.194h-3.423v4.477h3.335q2.576,0,2.576-2.283m6.059,13.672H479.5l-3.34-6.909h-2.282v6.909h-5.6v-20.5h9.167q7.993,0,7.993,6.677a6.029,6.029,0,0,1-3.69,6Z" transform="translate(-323.209 -435.633)" fill="#454d53"/>
      <rect id="Rectangle_5" data-name="Rectangle 5" width="5.799" height="20.496" transform="translate(162.818 0.32)" fill="#454d53"/>
      <path id="Path_9" data-name="Path 9" d="M104.306,446.171a6.183,6.183,0,0,0-1.083-4.1,4.558,4.558,0,0,0-3.658-1.26H98.158v10.771H99.39a5.028,5.028,0,0,0,3.8-1.2q1.109-1.2,1.111-4.216m5.828-.086q0,5.62-2.813,8.078-2.6,2.286-8.255,2.286H92.422v-20.5h7.171q5.15,0,7.7,2.171,2.835,2.455,2.841,7.961" transform="translate(-92.422 -435.633)" fill="#454d53"/>
    </g>
    <path id="Path_10" data-name="Path 10" d="M236.486,360.861q0-2.861-3.243-2.862h-4.465v5.836h4.351q3.355,0,3.357-2.974m7.9,17.813H236.1l-4.348-9h-2.977v9H221.5v-26.7h11.942q10.406,0,10.409,8.7,0,5.642-4.806,7.82Z" transform="translate(-95.774 0)" fill="#454d53"/>
    <path id="Path_11" data-name="Path 11" d="M119.6,351.971l-9.881,16.745v9.958h-7.479v-9.84l-9.878-16.863h8.543s4.6,8.489,5.11,10.086c.513-1.6,5.115-10.086,5.115-10.086Z" transform="translate(-16.484 0)" fill="#454d53"/>
    <path id="Path_12" data-name="Path 12" d="M300.618,351.971l-9.881,16.745v9.958h-7.478v-9.84l-9.878-16.863h8.544s4.6,8.489,5.11,10.086c.513-1.6,5.114-10.086,5.114-10.086Z" transform="translate(-127.632 0)" fill="#454d53"/>
    <path id="Path_13" data-name="Path 13" d="M430.368,378.674h-21.9v-5.3l7.818-9.536q1.524-1.865,5.263-5.949-3.089.109-7.934.112h-4.384v-6.028h21.056v5.3l-7.819,9.537q-1.523,1.866-5.267,5.951,3.087-.118,7.936-.117h5.228Z" transform="translate(-210.581 0)" fill="#454d53"/>
    <rect id="Rectangle_6" data-name="Rectangle 6" width="3.89" height="11.69" transform="translate(183.492 351.971)" fill="#e50019"/>
    <path id="Path_14" data-name="Path 14" d="M369.289,367.267q0,6.069-3.357,9.079-3.05,2.749-8.428,2.747-5.34,0-8.32-2.747-3.315-3.009-3.32-9.079v-15.3h7.555v15.3q0,5.307,4.2,5.3,4.124,0,4.122-5.3v-15.3h7.552Z" transform="translate(-172.14 0)" fill="#454d53"/>
    <rect id="Rectangle_7" data-name="Rectangle 7" width="3.893" height="11.69" transform="translate(230.863 351.971)" fill="#e50019"/>
    <path id="Path_15" data-name="Path 15" d="M492.027,367.267q0,6.069-3.359,9.079-3.049,2.749-8.428,2.747-5.336,0-8.315-2.747-3.323-3.009-3.319-9.079v-15.3h7.554v15.3q0,5.307,4.2,5.3c2.749,0,4.116-1.766,4.116-5.3v-15.3h7.554Z" transform="translate(-247.506 0)" fill="#454d53"/>
    <path id="Path_16" data-name="Path 16" d="M185.134,372.457H172.026v-4.579h7.9V361.74h-7.9v-3.551h13.108v-6.218H164.707v26.7h20.427Z" transform="translate(-60.904 0)" fill="#454d53"/>
  </g>
</svg>
